<?xml version="1.0" encoding="UTF-8"?><svg id="Layer_1" xmlns="http://www.w3.org/2000/svg" viewBox="0 0 2684.11 2740.99"><defs><style>.cls-1{fill:#fff;}</style></defs><path d="M1470.29,1581.16c-24.12,0-43.68,19.56-43.68,43.68,0,20.04,13.48,36.92,31.87,42.07,3.76,1.05,7.71,1.62,11.81,1.62,1.53,0,3.04-.08,4.53-.24,22-2.26,39.16-20.84,39.16-43.45,0-24.12-19.56-43.68-43.69-43.68Zm0,65.88c-12.25,0-22.18-9.94-22.18-22.19s9.94-22.19,22.18-22.19,22.19,9.94,22.19,22.19-9.94,22.19-22.19,22.19Z"/><path d="M1262.44,1581.16c-24.13,0-43.69,19.56-43.69,43.68,0,21.44,15.44,39.26,35.8,42.97,2.56,.47,5.19,.71,7.89,.71,5.05,0,9.91-.86,14.42-2.45h0c17.04-5.95,29.25-22.17,29.25-41.23,0-24.12-19.56-43.68-43.68-43.68Zm0,65.88c-12.26,0-22.19-9.94-22.19-22.19s9.94-22.19,22.19-22.19,22.18,9.94,22.18,22.19-9.94,22.19-22.18,22.19Z"/><path class="cls-1" d="M978,1101.09l74.74,.3c58.12,146.65,116.25,293.3,174.37,439.95,.14,.43,.53,1.38,1.49,2.13,1.57,1.22,3.41,.89,3.71,.84,83.75-.38,167.5-.76,251.25-1.14,11.05-1.88,19.79-4.23,25.41-5.9,65.51-19.48,104.43-65.29,116.78-80.21,2.42-2.93,5.97-7.27,10.15-12.94,51.26-69.59,50.1-150.9,49.96-156.6-.51-21.52-3.78-103.28-69.94-167.06-53.73-51.8-117.03-60.96-138-63.09-59.91,.24-119.83,.47-179.74,.71-.59-.02-6.39-.08-10.1,4.75-3.33,4.33-2.4,9.24-2.25,9.97,1.89,92.71,3.78,185.42,5.67,278.13,4.13,20.53,22.3,35.32,42.9,35.19,21.29-.14,39.68-16.18,42.75-37.62l-1.1-201.1c21.44-3.99,55.01-3.79,95.94,0,14.2,1.31,36.7,5.43,59.14,19.71,63.99,40.72,64.49,123.92,64.4,132.74-.54,55.19-29.07,93.97-40.18,107.58-7.8,9.76-15.52,16.91-21.59,21.88-10.97,8.98-20.42,14.01-29.07,18.62-11.36,6.06-17.91,8.24-20.22,8.98-7.08,2.26-13.25,3.36-17.74,3.94-61.77-.66-123.54-1.31-185.32-1.97-57-146.61-114-293.22-171-439.82-.2-.55-.72-1.74-1.94-2.72h0c0-.68-2.91-1.21-3.87-1.38-1.88-.34-25.38-.58-125.97,.02-24.53,2.78-41.99,24.38-40.05,46.92,1.71,19.81,18.09,36.65,39.4,39.2Z"/><path class="cls-1" d="M1745.65,1723.55c-110.63-16.62-240.81-28.73-386.64-28.29-147.1,.45-278.23,13.58-389.46,31.12,91.37-30.19,229.95-64.33,400.78-63.18,158.05,1.06,287.22,31.94,375.32,60.35Z"/></svg>