<?xml version="1.0" encoding="UTF-8"?><svg id="Layer_1" xmlns="http://www.w3.org/2000/svg" viewBox="0 0 4424.2 2740.99"><defs><style>.cls-1{fill:#fff;}.cls-2{fill:#ffa200;}</style></defs><path class="cls-1" d="M2382.37,1496.89c-32.03,0-58,25.97-58,58,0,26.6,17.9,49.02,42.32,55.86,4.99,1.4,10.24,2.15,15.68,2.15,2.03,0,4.04-.11,6.02-.32,29.21-3,52-27.67,52-57.69,0-32.03-25.97-58-58.02-58Zm0,87.47c-16.26,0-29.46-13.19-29.46-29.47s13.19-29.47,29.46-29.47,29.47,13.19,29.47,29.47-13.19,29.47-29.47,29.47Z"/><path class="cls-1" d="M2106.38,1496.89c-32.04,0-58.02,25.97-58.02,58,0,28.46,20.5,52.13,47.54,57.06,3.4,.62,6.89,.95,10.47,.95,6.71,0,13.16-1.14,19.15-3.25h.01c22.62-7.9,38.84-29.43,38.84-54.75,0-32.03-25.97-58-58-58Zm0,87.47c-16.28,0-29.47-13.19-29.47-29.47s13.19-29.47,29.47-29.47,29.46,13.19,29.46,29.47-13.19,29.47-29.46,29.47Z"/><path class="cls-2" d="M1728.71,859.45l99.24,.4c77.18,194.72,154.36,389.45,231.53,584.17,.19,.57,.7,1.83,1.98,2.83,2.09,1.62,4.53,1.19,4.93,1.11,111.2-.5,222.41-1.01,333.61-1.51,14.67-2.49,26.28-5.62,33.74-7.84,86.99-25.87,138.66-86.69,155.06-106.51,3.22-3.89,7.93-9.66,13.47-17.19,68.07-92.4,66.52-200.36,66.34-207.93-.68-28.57-5.02-137.14-92.87-221.82-71.35-68.78-155.39-80.94-183.24-83.77-79.55,.31-159.11,.63-238.66,.94-.79-.02-8.48-.1-13.41,6.31-4.42,5.75-3.18,12.27-2.98,13.23,2.51,123.1,5.02,246.2,7.53,369.31,5.48,27.27,29.61,46.9,56.97,46.72,28.27-.18,52.69-21.48,56.76-49.95l-1.46-267.02c28.47-5.29,73.05-5.03,127.4,0,18.86,1.75,48.73,7.21,78.53,26.18,84.96,54.06,85.63,164.54,85.51,176.26-.72,73.28-38.59,124.77-53.35,142.84-10.36,12.96-20.61,22.46-28.67,29.05-14.56,11.92-27.11,18.61-38.59,24.73-15.09,8.04-23.78,10.94-26.85,11.92-9.4,3-17.59,4.46-23.56,5.24-82.02-.87-164.04-1.75-246.06-2.62-75.68-194.67-151.37-389.33-227.05-584-.27-.74-.96-2.31-2.57-3.61h0c0-.9-3.87-1.61-5.14-1.84-2.49-.45-33.7-.77-167.27,.03-32.57,3.69-55.76,32.37-53.18,62.3,2.27,26.3,24.02,48.67,52.31,52.04Z"/><path class="cls-2" d="M2748,1685.96c-146.9-22.07-319.75-38.15-513.38-37.56-195.32,.6-369.43,18.03-517.13,41.32,121.32-40.09,305.33-85.42,532.16-83.89,209.86,1.41,381.37,42.42,498.35,80.14Z"/></svg>