<?xml version="1.0" encoding="UTF-8"?><svg id="Layer_1" xmlns="http://www.w3.org/2000/svg" viewBox="0 0 4424.2 2727.41"><defs><style>.cls-1{fill:#fff;}.cls-2{fill:#ffa200;}</style></defs><path class="cls-1" d="M1695.05,1591.91c-32.03,0-58,25.97-58,58,0,26.6,17.9,49.02,42.32,55.86,4.99,1.4,10.24,2.15,15.68,2.15,2.03,0,4.04-.11,6.02-.32,29.21-3,52-27.67,52-57.69,0-32.03-25.97-58-58.02-58Zm0,87.47c-16.26,0-29.46-13.19-29.46-29.47s13.19-29.47,29.46-29.47,29.47,13.19,29.47,29.47-13.19,29.47-29.47,29.47Z"/><path class="cls-1" d="M1419.06,1591.91c-32.04,0-58.02,25.97-58.02,58,0,28.46,20.5,52.13,47.54,57.06,3.4,.62,6.89,.95,10.47,.95,6.71,0,13.16-1.14,19.15-3.25h.01c22.62-7.9,38.84-29.43,38.84-54.75,0-32.03-25.97-58-58-58Zm0,87.47c-16.28,0-29.47-13.19-29.47-29.47s13.19-29.47,29.47-29.47,29.46,13.19,29.46,29.47-13.19,29.47-29.46,29.47Z"/><path class="cls-2" d="M1041.38,954.47l99.24,.4c77.18,194.72,154.36,389.45,231.53,584.17,.19,.57,.7,1.83,1.98,2.83,2.09,1.62,4.53,1.19,4.93,1.11,111.2-.5,222.41-1.01,333.61-1.51,14.67-2.49,26.28-5.62,33.74-7.84,86.99-25.87,138.66-86.69,155.06-106.51,3.22-3.89,7.93-9.66,13.47-17.19,68.07-92.4,66.52-200.36,66.34-207.93-.68-28.57-5.02-137.14-92.87-221.82-71.35-68.78-155.39-80.94-183.24-83.77-79.55,.31-159.11,.63-238.66,.94-.79-.02-8.48-.1-13.41,6.31-4.42,5.75-3.18,12.27-2.98,13.23,2.51,123.1,5.02,246.2,7.53,369.31,5.48,27.27,29.61,46.9,56.97,46.72,28.27-.18,52.69-21.48,56.76-49.95l-1.46-267.02c28.47-5.29,73.05-5.03,127.4,0,18.86,1.75,48.73,7.21,78.53,26.18,84.96,54.06,85.63,164.54,85.51,176.26-.72,73.28-38.59,124.77-53.35,142.84-10.36,12.96-20.61,22.46-28.67,29.05-14.56,11.92-27.11,18.61-38.59,24.73-15.09,8.04-23.78,10.94-26.85,11.92-9.4,3-17.59,4.46-23.56,5.24-82.02-.87-164.04-1.75-246.06-2.62-75.68-194.67-151.37-389.33-227.05-584-.27-.74-.96-2.31-2.57-3.61h0c0-.9-3.87-1.61-5.14-1.84-2.49-.45-33.7-.77-167.27,.03-32.57,3.69-55.76,32.37-53.18,62.3,2.27,26.3,24.02,48.67,52.31,52.04Z"/><path class="cls-1" d="M2387.66,1287.58c-.49-4.96-1.52-11.98-3.98-20.07,0,0-2.17-7.15-5.55-14.33-20.79-44.24-68.2-72.39-68.2-72.39-43.5-25.83-85.35-26.06-101.26-25.95-18.73,.13-57.26,2.99-96.49,25.04-23.27,13.08-37.84,27.87-41.72,31.95-32.25,33.98-48.37,76.5-48.37,127.56s16.01,94.67,48.04,128.21c32.03,33.55,73.36,50.31,123.99,50.31,24.66,0,47.6-4.65,68.81-13.96,21.2-9.3,37.66-20.86,49.34-34.72,8.65,12.99,18.61,23.27,29.87,30.84,11.25,7.56,21.42,11.36,30.51,11.36,5.7,0,10.2-1.42,13.48-4.24,6.38-5.51,6.6-14.95,6.64-19.14,.11-16.92-1.65-94.43-5.12-200.46Zm-121.8,113.14c-15.37,15.8-34.52,23.7-57.45,23.7s-42.2-7.9-57.79-23.7c-15.57-15.79-23.36-36.24-23.36-61.34s7.79-45.54,23.36-61.34c15.58-15.8,34.83-23.7,57.79-23.7s42.08,7.9,57.45,23.7c15.35,15.8,23.05,36.24,23.05,61.34s-7.7,45.55-23.05,61.34Z"/><path class="cls-1" d="M3012.07,1340.68v-132.43c-.47-5.22-2.51-20.4-14.65-33.72-3.2-3.53-15.85-17.4-36.57-18.12-23.05-.8-37.55,15.31-39.77,17.85-11.97,13.74-12.79,29.44-12.88,33.98v123.99c0,58.85-19.47,88.29-58.42,88.29s-58.43-29.43-58.43-88.29v-123.99c-.09-4.36-.95-20.66-13.62-34.79-2.43-2.72-15.88-17.14-37.9-17.62-2.94-.06-25.84-.17-41.11,18.69-11.21,13.85-11.35,29.32-11.24,33.72v123.99c0,58.85-19.47,88.29-58.42,88.29s-58.43-29.43-58.43-88.29v-123.99c-.1-3.54-.93-21.94-16.06-36.12-12.71-11.91-27.55-13.39-32.83-13.62-23-1.02-37.84,13.76-40.04,16.02-12.95,13.31-14.61,29.19-14.94,33.72v132.43c-.85,10.71-5.35,82.28,47.77,133.35,37.37,35.91,82.76,42.01,98.3,43.86,37.37,4.49,66.33-4.19,74.94-6.98,24.18-7.83,41.86-19.63,52.78-28.19,8.64,6.91,21.6,15.9,38.85,23.18,37.95,16.03,72.1,13.79,86.6,11.99,16.03-1.98,59.41-9.72,96.18-45.47,53-51.55,50.48-120.66,49.88-131.75Z"/><path class="cls-1" d="M3430.2,1287.58c-.49-4.96-1.52-11.98-3.98-20.07,0,0-2.16-7.15-5.55-14.33-20.78-44.24-68.2-72.39-68.2-72.39-43.5-25.83-85.34-26.06-101.26-25.95-18.73,.13-57.25,2.99-96.49,25.04-23.27,13.08-37.84,27.87-41.72,31.95-32.25,33.98-48.37,76.5-48.37,127.56s16.01,94.67,48.04,128.21c32.03,33.55,73.36,50.31,123.99,50.31,24.68,0,47.6-4.65,68.82-13.96,21.19-9.3,37.65-20.86,49.34-34.72,8.64,12.99,18.59,23.27,29.86,30.84,11.25,7.56,21.42,11.36,30.51,11.36,5.7,0,10.2-1.42,13.48-4.24,6.4-5.51,6.61-14.95,6.64-19.14,.11-16.92-1.65-94.43-5.12-200.46Zm-121.8,113.14c-15.37,15.8-34.52,23.7-57.45,23.7s-42.2-7.9-57.77-23.7c-15.58-15.79-23.38-36.24-23.38-61.34s7.79-45.54,23.38-61.34c15.57-15.8,34.83-23.7,57.77-23.7s42.08,7.9,57.45,23.7c15.37,15.8,23.05,36.24,23.05,61.34s-7.68,45.55-23.05,61.34Z"/><path class="cls-2" d="M2060.67,1780.98c-146.9-22.07-319.75-38.15-513.38-37.56-195.32,.6-369.43,18.03-517.13,41.32,121.32-40.09,305.33-85.42,532.16-83.89,209.86,1.41,381.37,42.42,498.35,80.14Z"/></svg>