<?xml version="1.0" encoding="UTF-8"?><svg id="Layer_1" xmlns="http://www.w3.org/2000/svg" viewBox="0 0 3298.32 2740.99"><defs><style>.cls-1{fill:#ffa200;}</style></defs><path d="M1769.44,1587.19c-22.63,0-40.97,18.35-40.97,40.97,0,18.79,12.65,34.63,29.9,39.45,3.52,.99,7.24,1.52,11.08,1.52,1.43,0,2.85-.08,4.25-.22,20.64-2.12,36.73-19.55,36.73-40.75,0-22.63-18.35-40.97-40.98-40.97Zm0,61.79c-11.49,0-20.81-9.32-20.81-20.82s9.32-20.82,20.81-20.82,20.82,9.32,20.82,20.82-9.32,20.82-20.82,20.82Z"/><path d="M1574.48,1587.19c-22.63,0-40.98,18.35-40.98,40.97,0,20.1,14.48,36.82,33.58,40.3,2.4,.44,4.87,.67,7.4,.67,4.74,0,9.29-.81,13.53-2.3h0c15.98-5.58,27.43-20.79,27.43-38.67,0-22.63-18.35-40.97-40.97-40.97Zm0,61.79c-11.5,0-20.82-9.32-20.82-20.82s9.32-20.82,20.82-20.82,20.81,9.32,20.81,20.82-9.32,20.82-20.81,20.82Z"/><path class="cls-1" d="M1307.7,1136.92l70.1,.28c54.52,137.55,109.03,275.09,163.55,412.64,.13,.4,.5,1.3,1.4,2,1.48,1.14,3.2,.84,3.48,.78,78.55-.36,157.1-.71,235.65-1.07,10.36-1.76,18.56-3.97,23.83-5.54,61.45-18.27,97.94-61.23,109.53-75.24,2.27-2.75,5.6-6.82,9.52-12.14,48.08-65.27,46.99-141.53,46.86-146.88-.48-20.18-3.55-96.87-65.6-156.69-50.4-48.58-109.77-57.17-129.44-59.17-56.19,.22-112.39,.44-168.58,.67-.56-.02-5.99-.07-9.47,4.46-3.12,4.07-2.25,8.67-2.11,9.35,1.77,86.96,3.55,173.91,5.32,260.87,3.87,19.26,20.92,33.13,40.24,33,19.97-.13,37.22-15.17,40.1-35.28l-1.03-188.62c20.11-3.74,51.6-3.55,89.99,0,13.32,1.23,34.42,5.1,55.47,18.49,60.02,38.19,60.48,116.23,60.4,124.51-.51,51.76-27.26,88.14-37.68,100.9-7.32,9.16-14.56,15.86-20.25,20.52-10.29,8.42-19.15,13.14-27.26,17.47-10.66,5.68-16.8,7.73-18.97,8.42-6.64,2.12-12.43,3.15-16.64,3.7-57.94-.62-115.88-1.23-173.81-1.85-53.46-137.51-106.92-275.01-160.38-412.52-.19-.52-.68-1.63-1.82-2.55h0c0-.64-2.73-1.13-3.63-1.3-1.76-.32-23.8-.54-118.15,.02-23.01,2.61-39.39,22.87-37.56,44,1.6,18.58,16.96,34.38,36.95,36.76Z"/><path class="cls-1" d="M2027.7,1720.74c-103.77-15.59-225.86-26.95-362.64-26.53-137.97,.42-260.96,12.73-365.29,29.19,85.7-28.32,215.68-60.34,375.9-59.26,148.24,1,269.39,29.96,352.02,56.61Z"/></svg>