<?xml version="1.0" encoding="UTF-8"?><svg id="Layer_1" xmlns="http://www.w3.org/2000/svg" viewBox="0 0 2836.77 2740.99"><defs><style>.cls-1{fill:#fff;}.cls-2{fill:#ffa200;}.cls-3{fill:#fcfcfc;}</style></defs><path class="cls-3" d="M1464.95,1504.69c-22.95,0-41.56,18.61-41.56,41.56,0,19.06,12.83,35.13,30.33,40.02,3.57,1,7.34,1.54,11.24,1.54,1.45,0,2.9-.08,4.31-.23,20.93-2.15,37.26-19.83,37.26-41.34,0-22.95-18.61-41.56-41.57-41.56Zm0,62.68c-11.65,0-21.11-9.45-21.11-21.12s9.45-21.12,21.11-21.12,21.12,9.45,21.12,21.12-9.45,21.12-21.12,21.12Z"/><path class="cls-1" d="M1267.19,1504.69c-22.96,0-41.57,18.61-41.57,41.56,0,20.39,14.69,37.35,34.07,40.89,2.44,.44,4.94,.68,7.51,.68,4.81,0,9.43-.82,13.72-2.33h0c16.21-5.66,27.83-21.09,27.83-39.23,0-22.95-18.61-41.56-41.56-41.56Zm0,62.68c-11.66,0-21.12-9.45-21.12-21.12s9.45-21.12,21.12-21.12,21.11,9.45,21.11,21.12-9.45,21.12-21.11,21.12Z"/><path class="cls-2" d="M996.56,1047.92l71.11,.29c55.3,139.53,110.61,279.06,165.91,418.6,.14,.41,.5,1.31,1.42,2.02,1.5,1.16,3.24,.85,3.53,.8,79.68-.36,159.37-.72,239.05-1.08,10.51-1.78,18.83-4.03,24.17-5.62,62.34-18.54,99.36-62.12,111.11-76.32,2.31-2.79,5.68-6.92,9.65-12.32,48.77-66.21,47.67-143.57,47.54-149-.49-20.47-3.6-98.27-66.55-158.95-51.13-49.29-111.35-58-131.3-60.02-57,.23-114.01,.45-171.01,.68-.56-.02-6.08-.07-9.61,4.52-3.17,4.12-2.28,8.79-2.14,9.48,1.8,88.21,3.6,176.42,5.4,264.63,3.93,19.54,21.22,33.61,40.82,33.48,20.26-.13,37.75-15.39,40.68-35.79l-1.05-191.34c20.4-3.79,52.34-3.61,91.29,0,13.51,1.25,34.92,5.17,56.27,18.76,60.88,38.74,61.36,117.91,61.28,126.3-.51,52.51-27.66,89.41-38.23,102.36-7.42,9.29-14.77,16.09-20.55,20.82-10.43,8.54-19.43,13.33-27.66,17.72-10.81,5.76-17.04,7.84-19.24,8.54-6.74,2.15-12.61,3.2-16.88,3.75-58.77-.63-117.55-1.25-176.32-1.88-54.23-139.49-108.46-278.98-162.7-418.48-.19-.53-.69-1.65-1.84-2.59h0c0-.65-2.77-1.15-3.69-1.32-1.79-.32-24.15-.55-119.86,.02-23.34,2.64-39.95,23.2-38.11,44.64,1.62,18.84,17.21,34.87,37.49,37.29Z"/><path class="cls-2" d="M1726.95,1640.17c-105.26-15.81-229.12-27.34-367.87-26.92-139.96,.43-264.72,12.92-370.56,29.61,86.93-28.73,218.79-61.21,381.33-60.12,150.38,1.01,273.28,30.39,357.1,57.42Z"/></svg>