<?xml version="1.0" encoding="UTF-8"?><svg id="Layer_1" xmlns="http://www.w3.org/2000/svg" viewBox="0 0 4424.2 2727.41"><defs><style>.cls-1{fill:#fff;}</style></defs><path d="M1663.23,1589.42c-28.96,0-52.45,23.48-52.45,52.45,0,24.06,16.19,44.32,38.27,50.5,4.51,1.26,9.26,1.94,14.18,1.94,1.83,0,3.65-.1,5.44-.29,26.41-2.71,47.01-25.02,47.01-52.16,0-28.96-23.48-52.45-52.46-52.45Zm0,79.09c-14.71,0-26.63-11.93-26.63-26.65s11.93-26.65,26.63-26.65,26.65,11.93,26.65,26.65-11.93,26.65-26.65,26.65Z"/><path d="M1413.69,1589.42c-28.97,0-52.46,23.48-52.46,52.45,0,25.73,18.54,47.13,42.99,51.59,3.07,.56,6.23,.86,9.47,.86,6.07,0,11.9-1.03,17.32-2.94h.01c20.46-7.14,35.12-26.61,35.12-49.5,0-28.96-23.48-52.45-52.45-52.45Zm0,79.09c-14.72,0-26.65-11.93-26.65-26.65s11.93-26.65,26.65-26.65,26.63,11.93,26.63,26.65-11.93,26.65-26.63,26.65Z"/><path class="cls-1" d="M1072.21,1013.06l89.73,.36c69.78,176.06,139.56,352.13,209.35,528.19,.17,.51,.64,1.66,1.79,2.55,1.89,1.46,4.09,1.07,4.46,1,100.55-.46,201.09-.91,301.64-1.37,13.27-2.25,23.76-5.08,30.5-7.09,78.65-23.39,125.37-78.38,140.2-96.3,2.91-3.52,7.17-8.73,12.18-15.54,61.54-83.55,60.15-181.16,59.98-188-.62-25.83-4.54-124-83.97-200.57-64.51-62.19-140.5-73.18-165.68-75.74-71.93,.28-143.86,.57-215.79,.85-.71-.02-7.67-.09-12.12,5.71-4,5.2-2.88,11.09-2.7,11.96,2.27,111.31,4.54,222.61,6.81,333.92,4.96,24.65,26.77,42.4,51.51,42.24,25.56-.17,47.64-19.42,51.32-45.16l-1.32-241.43c25.74-4.78,66.05-4.55,115.19,0,17.05,1.58,44.06,6.52,71.01,23.67,76.82,48.88,77.42,148.77,77.32,159.37-.65,66.26-34.9,112.81-48.24,129.16-9.36,11.72-18.64,20.3-25.93,26.27-13.17,10.78-24.52,16.82-34.9,22.36-13.64,7.27-21.5,9.89-24.28,10.78-8.5,2.71-15.91,4.04-21.3,4.73-74.16-.79-148.32-1.58-222.49-2.37-68.43-176.01-136.86-352.02-205.29-528.04-.24-.67-.87-2.09-2.33-3.27h0c0-.82-3.5-1.45-4.65-1.66-2.25-.41-30.47-.69-151.24,.03-29.45,3.34-50.41,29.27-48.08,56.33,2.05,23.78,21.71,44,47.3,47.06Z"/><path class="cls-1" d="M2289.47,1314.25c-.44-4.49-1.37-10.83-3.6-18.15,0,0-1.96-6.46-5.02-12.96-18.8-40-61.66-65.45-61.66-65.45-39.33-23.35-77.17-23.56-91.56-23.46-16.93,.12-51.78,2.7-87.24,22.64-21.04,11.83-34.22,25.2-37.72,28.88-29.16,30.73-43.73,69.17-43.73,115.34s14.47,85.6,43.44,115.92c28.96,30.33,66.33,45.49,112.11,45.49,22.3,0,43.04-4.2,62.21-12.62,19.17-8.41,34.05-18.86,44.61-31.4,7.82,11.74,16.82,21.04,27.01,27.89,10.17,6.84,19.37,10.27,27.59,10.27,5.16,0,9.22-1.28,12.19-3.83,5.77-4.98,5.97-13.52,6-17.31,.1-15.3-1.49-85.38-4.63-181.25Zm-110.13,102.3c-13.89,14.29-31.21,21.43-51.94,21.43s-38.16-7.14-52.25-21.43c-14.08-14.28-21.13-32.77-21.13-55.46s7.05-41.17,21.13-55.46c14.09-14.29,31.5-21.43,52.25-21.43s38.05,7.14,51.94,21.43c13.88,14.29,20.84,32.77,20.84,55.46s-6.96,41.19-20.84,55.46Z"/><path class="cls-1" d="M2854.05,1362.26v-119.74c-.43-4.72-2.27-18.45-13.25-30.49-2.9-3.19-14.33-15.74-33.07-16.38-20.84-.72-33.95,13.84-35.96,16.14-10.82,12.42-11.57,26.62-11.64,30.73v112.11c0,53.21-17.6,79.83-52.82,79.83s-52.83-26.61-52.83-79.83v-112.11c-.08-3.94-.86-18.68-12.31-31.45-2.19-2.46-14.35-15.5-34.27-15.93-2.66-.05-23.36-.15-37.17,16.9-10.14,12.52-10.26,26.51-10.16,30.49v112.11c0,53.21-17.6,79.83-52.82,79.83s-52.83-26.61-52.83-79.83v-112.11c-.09-3.2-.85-19.84-14.52-32.66-11.49-10.77-24.91-12.1-29.69-12.31-20.8-.92-34.22,12.44-36.2,14.49-11.71,12.04-13.21,26.39-13.51,30.49v119.74c-.77,9.68-4.84,74.39,43.19,120.57,33.79,32.47,74.83,37.98,88.88,39.66,33.79,4.06,59.97-3.79,67.75-6.31,21.86-7.08,37.85-17.75,47.73-25.49,7.81,6.24,19.53,14.38,35.13,20.96,34.32,14.5,65.19,12.47,78.3,10.84,14.5-1.79,53.72-8.79,86.96-41.11,47.92-46.61,45.64-109.09,45.1-119.12Z"/><path class="cls-1" d="M3232.11,1314.25c-.44-4.49-1.37-10.83-3.6-18.15,0,0-1.95-6.46-5.01-12.96-18.79-40-61.66-65.45-61.66-65.45-39.33-23.35-77.16-23.56-91.56-23.46-16.93,.12-51.76,2.7-87.24,22.64-21.04,11.83-34.22,25.2-37.72,28.88-29.16,30.73-43.73,69.17-43.73,115.34s14.48,85.6,43.44,115.92c28.96,30.33,66.33,45.49,112.11,45.49,22.31,0,43.04-4.2,62.22-12.62,19.16-8.41,34.04-18.86,44.61-31.4,7.81,11.74,16.81,21.04,27,27.89,10.17,6.84,19.37,10.27,27.59,10.27,5.16,0,9.22-1.28,12.19-3.83,5.78-4.98,5.98-13.52,6-17.31,.1-15.3-1.49-85.38-4.63-181.25Zm-110.13,102.3c-13.89,14.29-31.21,21.43-51.94,21.43s-38.16-7.14-52.24-21.43c-14.09-14.28-21.14-32.77-21.14-55.46s7.05-41.17,21.14-55.46c14.08-14.29,31.5-21.43,52.24-21.43s38.05,7.14,51.94,21.43c13.89,14.29,20.84,32.77,20.84,55.46s-6.95,41.19-20.84,55.46Z"/><path class="cls-1" d="M1993.82,1760.37c-132.82-19.96-289.11-34.5-464.18-33.96-176.6,.54-334.03,16.3-467.58,37.36,109.69-36.25,276.07-77.23,481.16-75.85,189.75,1.27,344.82,38.35,450.6,72.46Z"/></svg>